// ------------------------------
//  Sonatina Symphonic Orchestra
// ------------------------------
//          Grand Piano
// ------------------------------
// Samples from SSO 1.0 by Mattias Westlund
//          mattiaswestlund.net
// Modified by Signal Experiments
//         sig-ex.com
// Re-tuned using the Entropy Tuner
//         piano-tuner.org

<control>
default_path=samples\grand piano\

<global>
ampeg_release=1
xf_velcurve=gain

<group>
xfin_lovel=21
xfin_hivel=100

<region> 
sample=piano-f-c1.wav 
key=0
tune=-29.9257

<region> 
sample=piano-f-c1.wav 
lokey=1
hikey=1
pitch_keycenter=0
tune=-27.9281

<region> 
sample=piano-f-c1.wav 
lokey=2
hikey=2
pitch_keycenter=15
tune=-18.7973

<region> 
sample=piano-f-c1.wav 
key=15
tune=-17.2045

<region> 
sample=piano-f-c1.wav 
lokey=16
hikey=16
pitch_keycenter=15
tune=-15.6116

<region> 
sample=piano-f-d#1.wav 
lokey=17
hikey=17
pitch_keycenter=18
tune=-5.1897

<region> 
sample=piano-f-d#1.wav 
key=18
tune=-4.4500

<region> 
sample=piano-f-d#1.wav 
lokey=19
hikey=19
pitch_keycenter=18
tune=-2.6711

<region> 
sample=piano-f-f#1.wav 
lokey=20
hikey=20
pitch_keycenter=21
tune=-20.1707

<region> 
sample=piano-f-f#1.wav 
key=21
tune=-16.7590

<region> 
sample=piano-f-f#1.wav 
lokey=22
hikey=22
pitch_keycenter=21
tune=-24.9681

<region> 
sample=piano-f-a1.wav 
lokey=23
hikey=23
pitch_keycenter=12
tune=-7.1004

<region> 
sample=piano-f-a1.wav 
key=12
tune=-6.2680

<region> 
sample=piano-f-a1.wav 
lokey=13
hikey=13
pitch_keycenter=12
tune=-4.9591

<region> 
sample=piano-f-c2.wav 
lokey=14
hikey=14
pitch_keycenter=27
tune=-6.4995

<region>
sample=piano-f-c2.wav
key=27
tune=-9.6691

<region>
sample=piano-f-c2.wav
lokey=28
hikey=28
pitch_keycenter=27
tune=-9.3350

<region>
sample=piano-f-d#2.wav
lokey=29
hikey=29
pitch_keycenter=30
tune=-1.1348

<region>
sample=piano-f-d#2.wav
key=30
tune=-1.3603

<region>
sample=piano-f-d#2.wav
lokey=31
hikey=31
pitch_keycenter=30
tune=-0.4421

<region>
sample=piano-f-f#2.wav
lokey=32
hikey=32
pitch_keycenter=33
tune=-6.6531

<region>
sample=piano-f-f#2.wav
key=33
tune=-5.3818

<region>
sample=piano-f-f#2.wav
lokey=34
hikey=34
pitch_keycenter=33
tune=-0.9537

<region>
sample=piano-f-a2.wav
lokey=35
hikey=35
pitch_keycenter=24
tune=-7.1756

<region>
sample=piano-f-a2.wav
key=24
tune=-7.0801

<region>
sample=piano-f-a2.wav
lokey=25
hikey=25
pitch_keycenter=24
tune=-5.9385

<region>
sample=piano-f-c3.wav
lokey=26
hikey=26
pitch_keycenter=39
tune=-12.1913

<region>
sample=piano-f-c3.wav
key=39
tune=-11.9040

<region>
sample=piano-f-c3.wav
lokey=40
hikey=40
pitch_keycenter=39
tune=-11.1141

<region>
sample=piano-f-d#3.wav
lokey=41
hikey=41
pitch_keycenter=42
tune=-6.9587

<region>
sample=piano-f-d#3.wav
key=42
tune=-6.2319

<region>
sample=piano-f-d#3.wav
lokey=43
hikey=43
pitch_keycenter=42
tune=-10.3050

<region>
sample=piano-f-f#3.wav
lokey=44
hikey=44
pitch_keycenter=45
tune=-9.4151

<region>
sample=piano-f-f#3.wav
key=45
tune=-6.6354

<region>
sample=piano-f-f#3.wav
lokey=46
hikey=46
pitch_keycenter=45
tune=-7.5005

<region>
sample=piano-f-a3.wav
lokey=47
hikey=47
pitch_keycenter=36
tune=-5.0841

<region>
sample=piano-f-a3.wav
key=36
tune=-5.0377

<region>
sample=piano-f-a3.wav
lokey=37
hikey=37
pitch_keycenter=36
tune=-3.6377

<region>
sample=piano-f-c4.wav
lokey=38
hikey=38
pitch_keycenter=51
tune=-9.4552

<region>
sample=piano-f-c4.wav
key=51
tune=-7.7999

<region>
sample=piano-f-c4.wav
lokey=52
hikey=52
pitch_keycenter=51
tune=-6.1724

<region>
sample=piano-f-d#4.wav
lokey=53
hikey=53
pitch_keycenter=54
tune=-5.2947

<region>
sample=piano-f-d#4.wav
key=54
tune=-3.6068

<region>
sample=piano-f-d#4.wav
lokey=55
hikey=55
pitch_keycenter=54
tune=-6.5003

<region>
sample=piano-f-f#4.wav
lokey=56
hikey=56
pitch_keycenter=57
tune=-6.8929

<region>
sample=piano-f-f#4.wav
key=57
tune=-5.0051

<region>
sample=piano-f-f#4.wav
lokey=58
hikey=58
pitch_keycenter=57
tune=-4.6337

<region>
sample=piano-f-a4.wav
lokey=59
hikey=59
pitch_keycenter=48
tune=-2.9988

<region>
sample=piano-f-a4.wav
key=48
tune=-3.1448

<region>
sample=piano-f-a4.wav
lokey=49
hikey=49
pitch_keycenter=48
tune=-1.2978

<region>
sample=piano-f-c5.wav
lokey=50
hikey=50
pitch_keycenter=63
tune=-4.9440

<region>
sample=piano-f-c5.wav
key=63
tune=-4.6999

<region>
sample=piano-f-c5.wav
lokey=64
hikey=64
pitch_keycenter=63
tune=-2.6851

<region>
sample=piano-f-d#5.wav
lokey=65
hikey=65
pitch_keycenter=66
tune=-4.8246

<region>
sample=piano-f-d#5.wav
key=66
tune=-3.9671

<region>
sample=piano-f-d#5.wav
lokey=67
hikey=67
pitch_keycenter=66
tune=-7.5771

<region>
sample=piano-f-f#5.wav
lokey=68
hikey=68
pitch_keycenter=69
tune=-7.4286

<region>
sample=piano-f-f#5.wav
key=69
tune=-5.3959

<region>
sample=piano-f-f#5.wav
lokey=70
hikey=70
pitch_keycenter=69
tune=-4.1662

<region>
sample=piano-f-a5.wav
lokey=71
hikey=71
pitch_keycenter=60
tune=-2.7251

<region>
sample=piano-f-a5.wav
key=60
tune=0.3335

<region>
sample=piano-f-a5.wav
lokey=61
hikey=61
pitch_keycenter=60
tune=1.3329

<region>
sample=piano-f-c6.wav
lokey=62
hikey=62
pitch_keycenter=75
tune=-7.1135

<region>
sample=piano-f-c6.wav
key=75
tune=-0.3301

<region>
sample=piano-f-c6.wav
lokey=76
hikey=76
pitch_keycenter=75
tune=1.7125

<region>
sample=piano-f-d#6.wav
lokey=77
hikey=77
pitch_keycenter=78
tune=-4.1052

<region>
sample=piano-f-d#6.wav
key=78
tune=-2.9053

<region>
sample=piano-f-d#6.wav
lokey=79
hikey=79
pitch_keycenter=78
tune=-5.8817

<region>
sample=piano-f-f#6.wav
lokey=80
hikey=80
pitch_keycenter=81
tune=-4.3171

<region>
sample=piano-f-f#6.wav
key=81
tune=-1.3959

<region>
sample=piano-f-f#6.wav
lokey=82
hikey=82
pitch_keycenter=81
tune=-7.1496

<region>
sample=piano-f-a6.wav
lokey=83
hikey=83
pitch_keycenter=72
tune=-4.3413

<region>
sample=piano-f-a6.wav
key=72
tune=-11.3402

<region>
sample=piano-f-a6.wav
lokey=73
hikey=73
pitch_keycenter=72
tune=-5.3428

<region>
sample=piano-f-c7.wav
lokey=74
hikey=74
pitch_keycenter=87
tune=-11.6494

<region>
sample=piano-f-c7.wav
key=87
tune=-8.2817

<region>
sample=piano-f-c7.wav
lokey=88
hikey=88
pitch_keycenter=87
tune=-4.6377

<region>
sample=piano-f-d#7.wav
lokey=89
hikey=89
pitch_keycenter=90
tune=-3.2674

<region>
sample=piano-f-d#7.wav
key=90
tune=-0.4818

<region>
sample=piano-f-d#7.wav
lokey=91
hikey=91
pitch_keycenter=90
tune=-15.3831

<region>
sample=piano-f-f#7.wav
lokey=92
hikey=92
pitch_keycenter=93
tune=-7.7186

<region>
sample=piano-f-f#7.wav
key=93
tune=-4.7949

<region>
sample=piano-f-f#7.wav
lokey=94
hikey=94
pitch_keycenter=93
tune=-10.5428

<region>
sample=piano-f-a7.wav
lokey=95
hikey=95
pitch_keycenter=84
tune=-28.5624

<region>
sample=piano-f-a7.wav
key=84
tune=-29.7435

<region>
sample=piano-f-a7.wav
lokey=85
hikey=85
pitch_keycenter=84
tune=-29.4329

<region>
sample=piano-f-c8.wav
lokey=86
hikey=86
pitch_keycenter=99
tune=-18.5041

<region>
sample=piano-f-c8.wav
key=99
tune=-16.4030

<group>
xfout_lovel=20
xfout_hivel=99

<region>
sample=piano-p-c1-PA.wav
key=0
tune=-29.9257

<region>
sample=piano-p-c1-PA.wav
lokey=1
hikey=1
pitch_keycenter=0
tune=-27.9281

<region>
sample=piano-p-c1-PA.wav
lokey=2
hikey=2
pitch_keycenter=15
tune=-18.7973

<region>
sample=piano-p-c1-PA.wav
key=15
tune=-17.2045

<region>
sample=piano-p-c1-PA.wav
lokey=16
hikey=16
pitch_keycenter=15
tune=-15.6116

<region>
sample=piano-p-d#1-PA.wav
lokey=17
hikey=17
pitch_keycenter=18
tune=-5.1897

<region>
sample=piano-p-d#1-PA.wav
key=18
tune=-4.4500

<region>
sample=piano-p-d#1-PA.wav
lokey=19
hikey=19
pitch_keycenter=18
tune=-2.6711

<region>
sample=piano-p-f#1-PA.wav
lokey=20
hikey=20
pitch_keycenter=21
tune=-20.1707

<region>
sample=piano-p-f#1-PA.wav
key=21
tune=-16.7590

<region>
sample=piano-p-f#1-PA.wav
lokey=22
hikey=22
pitch_keycenter=21
tune=-24.9681

<region>
sample=piano-p-a1-PA.wav
lokey=23
hikey=23
pitch_keycenter=12
tune=-7.1004

<region>
sample=piano-p-a1-PA.wav
key=12
tune=-6.2680

<region>
sample=piano-p-a1-PA.wav
lokey=13
hikey=13
pitch_keycenter=12
tune=-4.9591

<region>
sample=piano-p-c2-PA.wav
lokey=14
hikey=14
pitch_keycenter=27
tune=-6.4995

<region>
sample=piano-p-c2-PA.wav
key=27
tune=-9.6691

<region>
sample=piano-p-c2-PA.wav
lokey=28
hikey=28
pitch_keycenter=27
tune=-9.3350

<region>
sample=piano-p-d#2-PA.wav
lokey=29
hikey=29
pitch_keycenter=30
tune=-1.1348

<region>
sample=piano-p-d#2-PA.wav
key=30
tune=-1.3603

<region>
sample=piano-p-d#2-PA.wav
lokey=31
hikey=31
pitch_keycenter=30
tune=-0.4421

<region>
sample=piano-p-f#2-PA.wav
lokey=32
hikey=32
pitch_keycenter=33
tune=-6.6531

<region>
sample=piano-p-f#2-PA.wav
key=33
tune=-5.3818

<region>
sample=piano-p-f#2-PA.wav
lokey=34
hikey=34
pitch_keycenter=33
tune=-0.9537

<region>
sample=piano-p-a2-PA.wav
lokey=35
hikey=35
pitch_keycenter=24
tune=-7.1756

<region>
sample=piano-p-a2-PA.wav
key=24
tune=-7.0801

<region>
sample=piano-p-a2-PA.wav
lokey=25
hikey=25
pitch_keycenter=24
tune=-5.9385

<region>
sample=piano-p-c3-PA.wav
lokey=26
hikey=26
pitch_keycenter=39
tune=-12.1913

<region>
sample=piano-p-c3-PA.wav
key=39
tune=-11.9040

<region>
sample=piano-p-c3-PA.wav
lokey=40
hikey=40
pitch_keycenter=39
tune=-11.1141

<region>
sample=piano-p-d#3-PA.wav
lokey=41
hikey=41
pitch_keycenter=42
tune=-6.9587

<region>
sample=piano-p-d#3-PA.wav
key=42
tune=-6.2319

<region>
sample=piano-p-d#3-PA.wav
lokey=43
hikey=43
pitch_keycenter=42
tune=-10.3050

<region>
sample=piano-p-f#3-PA.wav
lokey=44
hikey=44
pitch_keycenter=45
tune=-9.4151

<region>
sample=piano-p-f#3-PA.wav
key=45
tune=-6.6354

<region>
sample=piano-p-f#3-PA.wav
lokey=46
hikey=46
pitch_keycenter=45
tune=-7.5005

<region>
sample=piano-p-a3-PA.wav
lokey=47
hikey=47
pitch_keycenter=36
tune=-5.0841

<region>
sample=piano-p-a3-PA.wav
key=36
tune=-5.0377

<region>
sample=piano-p-a3-PA.wav
lokey=37
hikey=37
pitch_keycenter=36
tune=-3.6377

<region>
sample=piano-p-c4-PA.wav
lokey=38
hikey=38
pitch_keycenter=51
tune=-9.4552

<region>
sample=piano-p-c4-PA.wav
key=51
tune=-7.7999

<region>
sample=piano-p-c4-PA.wav
lokey=52
hikey=52
pitch_keycenter=51
tune=-6.1724

<region>
sample=piano-p-d#4-PA.wav
lokey=53
hikey=53
pitch_keycenter=54
tune=-5.2947

<region>
sample=piano-p-d#4-PA.wav
key=54
tune=-3.6068

<region>
sample=piano-p-d#4-PA.wav
lokey=55
hikey=55
pitch_keycenter=54
tune=-6.5003

<region>
sample=piano-p-f#4-PA.wav
lokey=56
hikey=56
pitch_keycenter=57
tune=-6.8929

<region>
sample=piano-p-f#4-PA.wav
key=57
tune=-5.0051

<region>
sample=piano-p-f#4-PA.wav
lokey=58
hikey=58
pitch_keycenter=57
tune=-4.6337

<region>
sample=piano-p-a4-PA.wav
lokey=59
hikey=59
pitch_keycenter=48
tune=-2.9988

<region>
sample=piano-p-a4-PA.wav
key=48
tune=-3.1448

<region>
sample=piano-p-a4-PA.wav
lokey=49
hikey=49
pitch_keycenter=48
tune=-1.2978

<region>
sample=piano-p-c5-PA.wav
lokey=50
hikey=50
pitch_keycenter=63
tune=-4.9440

<region>
sample=piano-p-c5-PA.wav
key=63
tune=-4.6999

<region>
sample=piano-p-c5-PA.wav
lokey=64
hikey=64
pitch_keycenter=63
tune=-2.6851

<region>
sample=piano-p-d#5-PA.wav
lokey=65
hikey=65
pitch_keycenter=66
tune=-4.8246

<region>
sample=piano-p-d#5-PA.wav
key=66
tune=-3.9671

<region>
sample=piano-p-d#5-PA.wav
lokey=67
hikey=67
pitch_keycenter=66
tune=-7.5771

<region>
sample=piano-p-f#5-PA.wav
lokey=68
hikey=68
pitch_keycenter=69
tune=-7.4286

<region>
sample=piano-p-f#5-PA.wav
key=69
tune=-5.3959

<region>
sample=piano-p-f#5-PA.wav
lokey=70
hikey=70
pitch_keycenter=69
tune=-4.1662

<region>
sample=piano-p-a5-PA.wav
lokey=71
hikey=71
pitch_keycenter=60
tune=-2.7251

<region>
sample=piano-p-a5-PA.wav
key=60
tune=0.3335

<region>
sample=piano-p-a5-PA.wav
lokey=61
hikey=61
pitch_keycenter=60
tune=1.3329

<region>
sample=piano-p-c6-PA.wav
lokey=62
hikey=62
pitch_keycenter=75
tune=-7.1135

<region>
sample=piano-p-c6-PA.wav
key=75
tune=-0.3301

<region>
sample=piano-p-c6-PA.wav
lokey=76
hikey=76
pitch_keycenter=75
tune=1.7125

<region>
sample=piano-p-d#6-PA.wav
lokey=77
hikey=77
pitch_keycenter=78
tune=-4.1052

<region>
sample=piano-p-d#6-PA.wav
key=78
tune=-2.9053

<region>
sample=piano-p-d#6-PA.wav
lokey=79
hikey=79
pitch_keycenter=78
tune=-5.8817

<region>
sample=piano-p-f#6-PA.wav
lokey=80
hikey=80
pitch_keycenter=81
tune=-4.3171

<region>
sample=piano-p-f#6-PA.wav
key=81
tune=-1.3959

<region>
sample=piano-p-f#6-PA.wav
lokey=82
hikey=82
pitch_keycenter=81
tune=-7.1496

<region>
sample=piano-p-a6-PA.wav
lokey=83
hikey=83
pitch_keycenter=72
tune=-4.3413

<region>
sample=piano-p-a6-PA.wav
key=72
tune=-11.3402

<region>
sample=piano-p-a6-PA.wav
lokey=73
hikey=73
pitch_keycenter=72
tune=-5.3428

<region>
sample=piano-p-c7-PA.wav
lokey=74
hikey=74
pitch_keycenter=87
tune=-11.6494

<region>
sample=piano-p-c7-PA.wav
key=87
tune=-8.2817

<region>
sample=piano-p-c7-PA.wav
lokey=88
hikey=88
pitch_keycenter=87
tune=-4.6377

<region>
sample=piano-p-d#7-PA.wav
lokey=89
hikey=89
pitch_keycenter=90
tune=-3.2674

<region>
sample=piano-p-d#7-PA.wav
key=90
tune=-0.4818

<region>
sample=piano-p-d#7-PA.wav
lokey=91
hikey=91
pitch_keycenter=90
tune=-15.3831

<region>
sample=piano-p-f#7-PA.wav
lokey=92
hikey=92
pitch_keycenter=93
tune=-7.7186

<region>
sample=piano-p-f#7-PA.wav
key=93
tune=-4.7949

<region>
sample=piano-p-f#7-PA.wav
lokey=94
hikey=94
pitch_keycenter=93
tune=-10.5428

<region>
sample=piano-p-a7-PA.wav
lokey=95
hikey=95
pitch_keycenter=84
tune=-28.5624

<region>
sample=piano-p-a7-PA.wav
key=84
tune=-29.7435

<region>
sample=piano-p-a7-PA.wav
lokey=85
hikey=85
pitch_keycenter=84
tune=-29.4329

<region>
sample=piano-p-c8-PA.wav
lokey=86
hikey=86
pitch_keycenter=99
tune=-18.5041

<region>
sample=piano-p-c8-PA.wav
key=99
tune=-16.4030
